<svg id="Capa_1" enable-background="new 0 0 512.008 512.008" height="512" viewBox="0 0 512.008 512.008" width="512" xmlns="http://www.w3.org/2000/svg"><g><path d="m511.235 462.134-54.567-163.701c31.857-8.754 55.337-37.956 55.337-72.555 0-8.284-6.716-15-15-15h-60.711c9.688-12.466 15.461-28.108 15.461-45.25 0-8.284-6.716-15-15-15h-150.626c-8.284 0-15 6.716-15 15 0 17.142 5.773 32.784 15.461 45.25h-75.836v-60.375h15.236c24.882 0 45.125-20.243 45.125-45.125s-20.243-45.125-45.125-45.125h-15.236v-15.126c0-8.284-6.716-15-15-15h-113.125c-8.284 0-15 6.716-15 15 0 14.282 4.459 27.979 12.567 39.353-12.691 13.756-19.942 31.904-19.942 51.022v75.375h-45.25c-8.284 0-15 6.716-15 15 0 34.6 23.48 63.801 55.337 72.555l-54.567 163.702c-2.62 7.858 1.628 16.354 9.487 18.974 1.574.524 3.173.773 4.746.773 6.28 0 12.133-3.976 14.229-10.261l36.748-110.243h380.044l36.748 110.243c2.096 6.286 7.948 10.261 14.229 10.261 1.572 0 3.172-.249 4.746-.773 7.856-2.62 12.103-11.115 9.484-18.974zm-207.551-281.507h115.515c-6.202 17.601-23 30.25-42.695 30.25h-30.125c-19.695 0-36.492-12.649-42.695-30.25zm-77.693-90.375c8.34 0 15.125 6.785 15.125 15.125s-6.785 15.125-15.125 15.125h-15.236v-30.25zm-135.737 45.25c0-14.973 7.401-28.959 19.799-37.414 3.883-2.648 6.3-6.963 6.531-11.657.23-4.693-1.752-9.225-5.357-12.24-4.62-3.865-8.186-8.69-10.505-14.063h80.033v150.75h-90.5v-75.376zm-57.695 105.375h446.89c-6.202 17.601-23 30.25-42.695 30.25h-361.5c-19.695 0-36.492-12.649-42.695-30.25zm43.423 90.5 10.083-30.25h339.877l10.083 30.25z"/></g></svg>