<svg id="Layer_1" enable-background="new 0 0 512.342 512.342" height="512" viewBox="0 0 512.342 512.342" width="512" xmlns="http://www.w3.org/2000/svg"><g><path d="m243.609 376.61c-.099-.64-.228-1.275-.386-1.903l-23.463-93.07c-.66-2.618-1.806-4.981-3.301-7.041l-8.29-31.599c-3.951.557-7.886.321-11.673-.667-11.963 8.762-28.802 8.238-40.246-2.19-.97-.884-1.869-1.824-2.706-2.806l-35.245 21.362 14.78 56.112 4.246 73.54-31.614 97.029c-3.521 10.808 2.386 22.424 13.193 25.945 10.854 3.538 22.439-2.434 25.945-13.193l32.816-100.718c.794-2.438 1.126-5.003.978-7.563l-4.398-76.153 10.439-2.802 18.387 72.933 17.079 111.055c1.729 11.236 12.237 18.943 23.472 17.214 11.234-1.728 18.941-12.236 17.214-23.471z"/><path d="m342.403 173.461c9.312-1.74 15.449-10.698 13.71-20.009-1.739-9.312-10.697-15.451-20.009-13.71l-54.145 10.114c-.042 4.781-1.61 9.397-4.589 13.242-4.2 5.42-10.543 8.529-17.404 8.529-2.149 0-4.28-.339-6.327-.956 2.926 5.912 3.41 12.829 1.257 19.136z"/><path d="m123.191 125.119c5.102 19.01 24.632 30.193 43.546 25.117 18.961-5.089 30.206-24.585 25.117-43.546-5.102-19.01-24.632-30.193-43.546-25.117-18.961 5.089-30.206 24.586-25.117 43.546z"/><path d="m174.197 224.817-9.262 5.614c.03.027.055.058.085.085 7.223 6.581 17.905 6.43 24.906.419 2.346-2.014 5.648-2.615 8.557-1.6 1.806.63 3.682.938 5.549.938 5.766 0 11.441-2.938 14.657-8.398 5.292-8.984 1.123-20.656-8.54-24.36-2.915-1.117-4.867-3.784-5.415-6.858-.787-4.419-3.486-8.514-7.94-10.93-4.962-2.692-11.03-2.35-15.667.631 1.087 1.251 2.088 2.604 2.977 4.069 8.417 13.889 3.982 31.972-9.907 40.39z"/><ellipse cx="231.348" cy="181.747" rx="11.873" ry="11.874" transform="matrix(.992 -.126 .126 .992 -21.034 30.561)"/><path d="m254.467 156.723c3.948 3.059 9.588 2.3 12.61-1.6 3.04-3.924 2.324-9.569-1.6-12.61-3.949-3.06-9.589-2.299-12.61 1.6-3.04 3.924-2.323 9.569 1.6 12.61z"/><path d="m231.439 153.597c2.198-2.836 1.68-6.917-1.156-9.115-2.854-2.211-6.932-1.662-9.115 1.156-2.198 2.836-1.68 6.917 1.156 9.115 2.854 2.212 6.931 1.663 9.115-1.156z"/><path d="m104.078 77.017c.023 3.048-1.297 6.326-3.519 9.493-.366.521-.335 1.224.075 1.711s1.097.637 1.673.366c8.581-4.032 13.181-15.574 4.532-28.707-5.722-8.308-7.163-14.444-1.925-21.647.376-.517.355-1.223-.05-1.717s-1.094-.654-1.675-.385c-8.576 3.961-12.031 15.771-4.847 26.859 1.429 2.436 5.834 7.905 5.736 14.027z"/><path d="m165.274 53.768c.023 3.044-1.293 6.317-3.51 9.479-.366.522-.334 1.226.077 1.713.412.487 1.1.636 1.676.362 8.469-4.017 13.243-15.442 4.518-28.69-5.594-8.122-7.204-14.344-1.912-21.655.374-.517.353-1.222-.052-1.715s-1.093-.653-1.673-.385c-8.586 3.955-12.049 15.771-4.861 26.865 1.431 2.435 5.835 7.904 5.737 14.026z"/><path d="m127.987 58.814c-.373.527-.338 1.241.084 1.729s1.124.627 1.699.335c3.88-1.973 7.179-5.591 8.443-10.207 4.744-17.18-17.159-24.354-6.124-39.824.375-.526.343-1.241-.079-1.731s-1.124-.631-1.701-.338c-3.816 1.938-7.145 5.606-8.224 10.481-3.674 16.6 17.27 23.481 5.902 39.555z"/><path d="m173.623 190.779c-4.91-8.1-15.457-10.688-23.558-5.777l-37.163 22.524 3.901-16.695 26.91-16.31c8.3-5.03 18.093-5.468 26.429-2.046 9.138-8.51 22.496-9.816 32.86-4.194 1.968 1.068 3.773 2.345 5.404 3.79.833-1.966 1.921-3.839 3.264-5.572.586-.757 1.21-1.473 1.867-2.148-3.644-3.151-5.985-7.461-6.596-12.277-.214-1.685-.188-3.36.026-5l-11.904-2.386c-6.3 8.251-15.083 14.174-25.276 16.91-16.377 4.396-33.711-.269-45.704-12.251l-15.144 4.029c-12.124 3.225-21.489 12.861-24.365 25.073-5.359 22.755-12.184 51.704-14.351 60.977-3.46 14.8 12.697 26.387 25.591 18.57l72.031-43.658c8.1-4.911 10.687-15.458 5.778-23.559z"/><path d="m372.677 18.771h-31.334l-43.97-18.145c-5.345-2.206-11.278 1.685-11.305 7.467-.115 25.27 8.826 46.775 26.823 64.514 4.118 4.059 11.061 2.596 13.267-2.749l13.598-32.953h32.922c28.172 0 51.783 22.85 51.783 51.783v93.515h-11.697v-2.377c0-5.008-4.059-9.067-9.067-9.067s-9.067 4.059-9.067 9.067v22.887c0 5.008 4.059 9.067 9.067 9.067s9.067-4.059 9.067-9.067v-2.376h11.697v274.669c0 10.588-8.614 19.201-19.201 19.201h-89.036c-5.008 0-9.067 4.059-9.067 9.067 0 5.007 4.059 9.067 9.067 9.067h89.036c20.587 0 37.335-16.749 37.335-37.336v-386.317c-.001-39.006-31.814-69.917-69.918-69.917z"/><path d="m263.372 110.977 8.412-8.683c2.323-2.397 2.262-6.225-.136-8.548-2.399-2.323-6.226-2.262-8.548.136l-8.412 8.683c-2.323 2.398-2.262 6.224.136 8.547 2.391 2.317 6.218 2.271 8.548-.135z"/><path d="m249.216 116.902c-2.399-2.324-6.226-2.262-8.548.136l-7.595 7.84c-2.323 2.397-2.262 6.224.136 8.547 2.396 2.322 6.223 2.264 8.548-.135l7.595-7.84c2.322-2.399 2.261-6.225-.136-8.548z"/><path d="m285.532 70.727-8.412 8.684c-2.323 2.398-2.262 6.224.136 8.547 2.39 2.316 6.218 2.27 8.548-.135l8.412-8.683c2.323-2.398 2.262-6.224-.136-8.547-2.399-2.324-6.226-2.263-8.548.134z"/><path d="m261.023 55.43c1.4 3.006 4.985 4.346 8.032 2.927l10.959-5.104c3.026-1.409 4.337-5.005 2.928-8.032-1.41-3.026-5.005-4.337-8.032-2.927l-10.959 5.104c-3.027 1.409-4.337 5.005-2.928 8.032z"/><path d="m202.574 82.653c1.4 3.006 4.985 4.346 8.032 2.927l10.959-5.104c3.026-1.409 4.337-5.005 2.928-8.032-1.409-3.026-5.005-4.337-8.032-2.927l-10.959 5.104c-3.026 1.41-4.337 5.005-2.928 8.032z"/><path d="m245.685 55.905-10.959 5.104c-3.026 1.409-4.337 5.005-2.928 8.031 1.4 3.006 4.985 4.346 8.032 2.927l10.959-5.104c3.026-1.409 4.337-5.005 2.928-8.031-1.409-3.025-5.005-4.336-8.032-2.927z"/><path d="m220.124 30.945 11.986-1.575c3.31-.435 5.641-3.471 5.206-6.781-.436-3.311-3.468-5.639-6.782-5.206l-11.986 1.575c-3.31.435-5.64 3.471-5.206 6.781.432 3.282 3.44 5.642 6.782 5.206z"/><path d="m188.159 35.145 11.987-1.575c3.311-.435 5.641-3.471 5.207-6.781-.436-3.31-3.481-5.638-6.781-5.206l-11.987 1.575c-3.311.435-5.641 3.471-5.207 6.781.441 3.349 3.515 5.64 6.781 5.206z"/><path d="m252.088 26.744 11.986-1.575c3.31-.435 5.641-3.471 5.206-6.781-.436-3.31-3.467-5.637-6.782-5.206l-11.986 1.575c-3.31.435-5.64 3.471-5.206 6.781.433 3.288 3.446 5.641 6.782 5.206z"/></g></svg>