<svg id="Capa_1" enable-background="new 0 0 512 512" height="512" viewBox="0 0 512 512" width="512" xmlns="http://www.w3.org/2000/svg"><g><path d="m256.002 415.721c-4.143 0-7.5 3.357-7.5 7.5v53.331c0 4.143 3.357 7.5 7.5 7.5s7.5-3.357 7.5-7.5v-53.331c0-4.143-3.357-7.5-7.5-7.5zm0-30.001c-4.142 0-7.5 3.358-7.5 7.5s3.358 7.5 7.5 7.5 7.5-3.358 7.5-7.5-3.358-7.5-7.5-7.5zm0-27.949c-42.521 0-77.114 34.594-77.114 77.114s34.593 77.115 77.114 77.115 77.114-34.594 77.114-77.114-34.594-77.115-77.114-77.115zm0 139.229c-34.25 0-62.114-27.864-62.114-62.114s27.864-62.114 62.114-62.114 62.114 27.864 62.114 62.114-27.864 62.114-62.114 62.114zm238.498-234h-137.398v-20.66h47.438c12.406 0 22.5-10.093 22.5-22.5v-92.68c0-12.407-10.094-22.5-22.5-22.5h-139.87c-12.406 0-22.5 10.093-22.5 22.5v32.334l-32.057-9.769c-8.287-2.175-10.161-11.244-9.373-18.684 11.138-9.836 18.182-24.206 18.182-40.198v-56.295c0-19.049-15.498-34.548-34.549-34.548h-38.181c-19.05 0-34.549 15.499-34.549 34.548v56.294c0 16.408 7.413 31.11 19.057 40.957.803 7.291-1.352 15.946-9.369 18.077l-42.387 12.93c-20.752 6.323-34.694 25.148-34.694 46.844v30.85c0 4.142 3.357 7.5 7.5 7.5s7.5-3.358 7.5-7.5v-30.85c0-15.051 9.671-28.11 24.068-32.496l16.24-4.954 31.053 26.57c2.712 2.32 6.066 3.458 9.409 3.458 4.023 0 8.03-1.648 10.875-4.863l6.887-7.779v73.414h-48.474v-12.991c0-4.142-3.357-7.5-7.5-7.5s-7.5 3.358-7.5 7.5v12.991h-76.808c-9.649 0-17.5 7.851-17.5 17.5v25c0 9.649 7.851 17.5 17.5 17.5h20.002v181.5c0 4.143 3.357 7.5 7.5 7.5s7.5-3.357 7.5-7.5v-181.5h441.998c9.649 0 17.5-7.851 17.5-17.5v-25c0-9.649-7.851-17.5-17.5-17.5zm-237.33-93.388c0-.022 0-.045 0-.067v-42.385c0-4.136 3.364-7.5 7.5-7.5h139.87c4.136 0 7.5 3.364 7.5 7.5v92.68c0 4.136-3.364 7.5-7.5 7.5h-47.438v-16.84c0-12.407-10.094-22.5-22.5-22.5s-22.5 10.093-22.5 22.5v16.84h-47.432c-4.136 0-7.5-3.364-7.5-7.5zm84.932 65.266v28.122h-15v-52.5c0-4.136 3.364-7.5 7.5-7.5s7.5 3.364 7.5 7.5v24.301c0 .013-.002.025-.002.039s.002.025.002.038zm-30 7.462v20.66h-24.352v-20.66zm-69.932-67.165v44.665c0 12.407 10.094 22.5 22.5 22.5h8.08v20.66h-36.494v-12.991c0-4.142-3.357-7.5-7.5-7.5s-7.5 3.358-7.5 7.5v12.991h-48.474v-73.763l7.541 8.318c2.873 3.169 6.792 4.787 10.735 4.787 3.324 0 6.667-1.15 9.413-3.49l31.447-26.801zm-36.427-11.101 9.141 2.786-23.774 20.261-14.077-15.528 20.149-11.838c2.574 1.905 5.459 3.375 8.561 4.319zm-79.099-129.526c0-10.779 8.77-19.548 19.549-19.548h38.181c10.779 0 19.549 8.77 19.549 19.548v20.382c-14.377-9.123-31.784-11.321-48.026-5.97l-29.252 9.637v-24.049zm0 56.294v-16.452l33.945-11.183c12.309-4.055 25.532-2.23 36.282 5.005l7.051 4.745v17.886c0 21.306-17.334 38.639-38.64 38.639s-38.638-17.334-38.638-38.64zm13.346 96.211-23.423-20.041 9.136-2.787c3.11-.947 5.993-2.415 8.557-4.31l19.427 11.668zm3.546-39.064c.965-2.338 1.615-4.797 1.927-7.319 6.136 2.449 12.82 3.811 19.819 3.811 7.323 0 14.305-1.479 20.67-4.147.301 2.581.957 5.095 1.94 7.482l-22.568 13.259zm353.464 157.511c0 1.379-1.121 2.5-2.5 2.5h-477c-1.379 0-2.5-1.121-2.5-2.5v-25c0-1.379 1.121-2.5 2.5-2.5h477c1.379 0 2.5 1.121 2.5 2.5zm-29.998 36.266c-4.143 0-7.5 3.357-7.5 7.5v155.234c0 4.143 3.357 7.5 7.5 7.5s7.5-3.357 7.5-7.5v-155.234c0-4.143-3.357-7.5-7.5-7.5z"/></g></svg>